<svg width="282mm" height="78.2mm" version="1.1" viewBox="0 0 282 78.2" xmlns="http://www.w3.org/2000/svg">
 <g transform="translate(-1.73 -9.64)" fill="#b60000">
  <path d="m97.4 73.4c-1.29-0.296-2.02-1.51-1.76-2.96 0.23-1.29 1.21-2.09 2.55-2.09 0.388-6.11e-4 1.07 0.126 1.12 0.209 0.0346 0.056-0.0652 0.448-0.123 0.483-0.0225 0.0139-0.163-0.0106-0.312-0.0543-0.188-0.055-0.428-0.074-0.778-0.0618-0.459 0.016-0.54 0.0348-0.862 0.199-0.681 0.348-0.986 0.973-0.943 1.94 0.027 0.606 0.155 0.957 0.48 1.32 0.312 0.344 0.681 0.49 1.29 0.512 0.348 0.0126 0.611-0.0063 0.8-0.0574 0.156-0.0418 0.299-0.0661 0.32-0.054 0.0197 0.0122 0.0634 0.106 0.0972 0.209 0.0495 0.15 0.0477 0.199-0.0092 0.251-0.2 0.186-1.35 0.285-1.89 0.161zm8.76 0.0031c-0.338-0.0954-0.647-0.322-0.849-0.621-0.322-0.477-0.339-0.601-0.362-2.52-0.0215-1.71-0.0202-1.75 0.0842-1.79 0.105-0.0559 0.419-0.0431 0.522 0.0212 0.035 0.0215 0.0535 0.579 0.0535 1.61 0 0.943 0.0228 1.68 0.0569 1.84 0.0707 0.341 0.257 0.673 0.459 0.816 0.428 0.306 1.12 0.234 1.47-0.151 0.318-0.352 0.346-0.535 0.346-2.38 4.9e-4 -0.899 0.0189-1.67 0.0411-1.7 0.0443-0.0697 0.144-0.0865 0.436-0.0742l0.194 0.0082v1.62c0 0.892-0.0235 1.75-0.0521 1.89-0.12 0.632-0.458 1.1-0.972 1.33-0.348 0.159-1.04 0.205-1.42 0.0967zm9.23 0.0386c-1.32-0.257-2.04-1.24-1.96-2.67 0.05-0.846 0.354-1.45 0.952-1.91 0.493-0.372 0.884-0.485 1.67-0.48 0.448 0.0031 0.71 0.0288 0.854 0.0839 0.192 0.0737 0.207 0.0931 0.2 0.272-0.01 0.301-0.0936 0.351-0.427 0.254-0.197-0.0577-0.424-0.0757-0.778-0.0614-0.618 0.0248-0.967 0.175-1.32 0.566-0.556 0.618-0.655 1.73-0.225 2.54 0.175 0.33 0.417 0.55 0.797 0.719 0.346 0.156 1.13 0.191 1.54 0.0687 0.165-0.0477 0.317-0.0677 0.341-0.0445 0.0233 0.0233 0.0577 0.14 0.0766 0.259l0.0346 0.217-0.278 0.0841c-0.275 0.0833-1.24 0.147-1.49 0.0983zm-37.8-0.0755c-0.0841-0.049-0.0905-0.22-0.0905-2.42 0-2.13 0.0082-2.38 0.0855-2.44 0.0652-0.054 0.296-0.071 0.97-0.071 0.813 0 0.905 0.0095 1.14 0.119 0.31 0.143 0.58 0.39 0.679 0.616 0.105 0.244 0.0907 0.705-0.029 0.939-0.0997 0.196-0.427 0.524-0.522 0.524-0.102 0-0.0454 0.141 0.0794 0.197 0.0711 0.0323 0.233 0.154 0.359 0.27 0.469 0.432 0.519 1.12 0.126 1.7-0.317 0.461-0.862 0.635-1.99 0.634-0.398-4.83e-4 -0.765-0.0246-0.815-0.0535zm1.86-0.585c0.757-0.352 0.679-1.37-0.128-1.67-0.139-0.049-0.404-0.0799-0.685-0.0799h-0.459v0.897c0 0.493 0.0155 0.912 0.0345 0.931 0.0189 0.0189 0.246 0.0343 0.504 0.034 0.385-4.83e-4 0.517-0.0226 0.734-0.123zm-0.265-2.31c0.276-0.0766 0.577-0.383 0.624-0.637 0.0588-0.314-0.101-0.639-0.39-0.791-0.204-0.108-0.289-0.121-0.724-0.108l-0.493 0.0147-0.0145 0.721c-0.0079 0.398-0.0031 0.752 0.0113 0.789 0.0326 0.0849 0.69 0.0912 0.985 0.0095zm2.42 2.91c-0.0792-0.0506-0.0996-4.87-0.0208-4.91 0.0268-0.0167 0.168-0.0221 0.312-0.0122l0.264 0.018v4.9h-0.176c-0.0973 0-0.209 0.0114-0.246 0.0254-0.0378 0.0139-0.0976 7e-3 -0.133-0.0154zm1.76-0.0012c-0.0947-0.0601-0.0964-4.82-0.0018-4.88 0.223-0.138 1.7-0.119 2.04 0.0265 0.677 0.288 0.957 0.802 0.774 1.42-0.0616 0.207-0.14 0.318-0.37 0.524-0.161 0.144-0.283 0.27-0.27 0.281 0.0123 0.0111 0.097 0.058 0.188 0.104 0.863 0.44 0.921 1.7 0.105 2.25-0.351 0.236-0.821 0.328-1.68 0.327-0.393-4.82e-4 -0.744-0.0196-0.779-0.0425zm1.86-0.616c0.22-0.111 0.306-0.192 0.398-0.373 0.226-0.448 0.0866-0.928-0.341-1.18-0.221-0.13-0.285-0.141-0.784-0.141h-0.543l-0.0143 0.852c-0.0078 0.469-0.0031 0.881 0.0113 0.918 0.0183 0.0478 0.162 0.0666 0.509 0.0666 0.425 0 0.517-0.0173 0.765-0.142zm-0.299-2.3c0.412-0.115 0.703-0.527 0.642-0.909-0.0752-0.462-0.422-0.653-1.15-0.63l-0.466 0.0152-0.0145 0.721c-0.0079 0.398-0.0031 0.752 0.0113 0.789 0.032 0.0834 0.689 0.0918 0.975 0.0123zm2.42 2.93c-0.0504-0.0213-0.0647-0.566-0.0647-2.47v-2.44l0.205-0.0346c0.113-0.0191 0.252-0.0196 0.31-0.0012 0.103 0.0328 0.105 0.0736 0.119 2.21l0.0135 2.18 2.07 0.0518 0.0315 0.491-1.21 6.11e-4c-0.663 4.83e-4 -1.25 0.0108-1.31 0.023-0.0569 0.0123-0.133 0.01-0.168-0.0049zm3.46-0.0012c-0.0824-0.0333-0.0957-4.91-0.0134-4.95 0.0281-0.0095 0.627-0.0055 1.33 0.0086l1.28 0.0258v0.466l-0.981 0.0141c-0.705 0.0101-0.993 0.032-1.02 0.0776-0.0474 0.0745-0.0564 1.29-0.0105 1.4 0.027 0.0702 0.157 0.0818 0.921 0.0818 0.968 0 1.01 0.0126 1.01 0.285 0 0.272-0.0448 0.285-1.01 0.285-0.763 0-0.894 0.0116-0.921 0.0818-0.0461 0.12-0.0368 1.54 0.0106 1.61 0.0293 0.0459 0.327 0.0674 1.07 0.0776l1.03 0.014 0.0163 0.197c0.0288 0.349 0.0403 0.346-1.38 0.341-0.7-0.0024-1.3-0.0158-1.34-0.0302zm9.47-1.8e-5c-0.0826-0.0333-0.0957-4.91-0.0133-4.95 0.0283-0.0095 0.168-0.0092 0.31 6.11e-4l0.259 0.018v0.972c0 0.761 0.0154 0.985 0.0713 1.03 0.0498 0.0412 0.404 0.055 1.18 0.0451l1.11-0.014 0.0517-2.02 0.647-0.0309v2.46c0 1.92-0.0142 2.46-0.0647 2.47-0.0356 0.0129-0.181 0.0096-0.323-0.0074l-0.259-0.0309-0.0278-2.25-2.34 0.0278-0.0278 2.25h-0.176c-0.0967 0-0.207 0.0098-0.244 0.0218-0.0378 0.012-0.098 0.01-0.134-0.0043zm21-0.0037-0.218-0.0197-0.0278-2.25-2.34-0.0278-0.0278 2.25-0.648 0.0309 0.0268-4.9h0.621l0.0518 2.02 1.11 0.014c0.773 0.0098 1.13-0.0037 1.18-0.0451 0.056-0.0464 0.0713-0.268 0.0713-1.03v-0.972l0.264-0.018c0.145-0.0098 0.286-0.0043 0.312 0.0122 0.0294 0.0183 0.0475 0.991 0.0458 2.46-3e-3 2.38-0.0136 2.54-0.156 2.49-0.0142-0.0043-0.124-0.0171-0.244-0.028zm-11.5-0.0786c-0.0118-1.38 5e-3 -4.77 0.0249-4.79 0.0579-0.0579 0.548-0.108 1.09-0.111 0.896-0.0049 1.38 0.161 1.68 0.577 0.427 0.588 0.246 1.51-0.362 1.86-0.241 0.138-0.257 0.204-0.0818 0.32 0.215 0.141 0.38 0.5 0.577 1.25 0.104 0.398 0.2 0.774 0.213 0.837 0.0244 0.111 0.0105 0.116-0.293 0.116-0.373 0-0.338 0.0561-0.577-0.891-0.0868-0.344-0.189-0.685-0.228-0.758-0.178-0.341-0.516-0.488-1.06-0.461l-0.336 0.0165-0.028 2.1h-0.309c-0.213 0-0.309-0.0202-0.31-0.0647zm1.84-2.67c0.365-0.168 0.543-0.445 0.543-0.842 0-0.293-0.136-0.546-0.38-0.708-0.194-0.128-0.247-0.138-0.781-0.138h-0.572l-0.0143 0.826c-8e-3 0.454-3e-3 0.855 0.0113 0.892 0.0423 0.11 0.936 0.0871 1.19-0.031zm-98.9 1.1c-0.0485-0.0485-0.0417-0.753 0.0081-0.833 0.0328-0.0518 6.27-0.0621 31-0.0518l31 0.013v0.879l-31 0.013c-17 0.0071-31-0.0024-31-0.0215zm112-0.0351c-0.0147-0.0381-0.0197-0.242-0.0113-0.453l0.0153-0.383h19.6l0.0298 0.905h-9.78c-8.15 0-9.78-0.0117-9.81-0.0695zm-96.8-5.84c-1.42-1.51-1.83-1.91-1.92-1.91-0.07 0-3.25 0.488-7.08 1.09-3.83 0.598-7 1.09-7.05 1.09-0.0574 0-0.0744-0.018-0.0443-0.0467 0.027-0.0257 3.67-1.25 8.1-2.72 4.43-1.47 8.54-2.85 9.15-3.06 1.68-0.577 2.2-0.702 3.15-0.757 1.01-0.0582 2.18-0.204 3.7-0.459 2.36-0.399 2.81-0.521 3.44-0.941 1.48-0.968 8.58-6.19 15.7-11.5 1.18-0.889 2.2-1.65 2.25-1.68 0.0858-0.0536 0.302 0.0469 1.61 0.75l1.51 0.813 3.23 3.04c1.78 1.67 3.28 3.04 3.33 3.06 0.0807 0.0135 4.46-1.86 4.95-2.1 0.0913-0.048 1.55-1.65 3.31-3.65l3.15-3.57 4.87-4.27c2.68-2.34 4.9-4.28 4.95-4.32 0.0504-0.029 0.698 0.567 2.23 2.05 1.19 1.15 2.2 2.1 2.25 2.1 0.0459 4.3e-5 0.849-0.323 1.78-0.718l1.7-0.718 14.1-14.4 4.61-3.22 2.81-2.54c1.54-1.4 2.85-2.55 2.88-2.55 0.0718-0.0159 0.844 0.863 10.7 12.2l5.03 5.79 3.1 6.85c1.71 3.77 3.09 6.85 3.07 6.89-0.0176 0.0176-0.0481 0.0072-0.0679-0.023-0.0197-0.0302-0.517-0.786-1.11-1.68-0.588-0.894-2.39-3.65-4.03-6.13l-2.94-4.49-6.87-7.15c-3.78-3.93-6.94-7.19-7.02-7.27-0.0737-0.0689-0.146-0.113-0.16-0.0989-0.0144 0.0144 0.543 1.96 1.24 4.33 0.697 2.36 1.25 4.33 1.24 4.36-0.015 0.035-0.503 0.458-1.08 0.938-0.582 0.48-1.06 0.892-1.06 0.913 0 0.0212 0.309 0.512 0.687 1.09 1.24 1.91 2.17 3.17 2.83 3.9 0.671 0.734 1.53 2.07 2.86 4.41 0.952 1.7 1.1 1.97 1.01 1.96-0.0438-0.01-1.96-1.78-4.25-3.93l-4.17-3.91-2.52-1.1c-1.38-0.605-2.55-1.1-2.59-1.1-0.0367 0-0.0666 0.0155-0.0666 0.0343 0 0.0189 0.396 0.81 0.879 1.76 0.483 0.947 0.879 1.75 0.879 1.78 0 0.0298-0.0291 0.0545-0.0647 0.0548-0.0356 3.24e-4 -0.902-0.365-1.92-0.812l-1.86-0.812-1.91-1.18c-1.05-0.65-1.94-1.18-1.97-1.17-0.0671 0.0148-7.97 6.18-8 6.26-0.029 0.0469-0.318-0.301 4.74 5.67 2.15 2.54 3.93 4.67 3.98 4.72 0.0372 0.053 0.045 0.0965 0.0175 0.0965-0.0276 0-1.89-1.36-4.12-3.02-2.25-1.67-4.09-3.01-4.11-2.99-0.0212 0.0222-0.0873 0.587-0.147 1.25-0.0595 0.668-0.129 1.24-0.155 1.26-0.0286 0.0286-1.18-0.721-2.91-1.89l-2.86-1.94-1.32-0.117c-0.726-0.064-1.35-0.131-1.38-0.148-0.0326-0.0175-0.782-0.737-1.67-1.6-0.988-0.964-1.63-1.56-1.68-1.55-0.102 0.0213-3.96 4.22-3.96 4.32 0 0.0365 2.21 2.2 4.93 4.8 5.4 5.19 5.45 5.24 5.4 5.29-0.0158 0.0158-2.12-1.21-4.66-2.72-2.55-1.51-4.66-2.75-4.69-2.75-0.0323 0-0.0535 0.0103-0.0535 0.0228 0 0.0126 0.255 0.878 0.569 1.92 0.314 1.05 0.569 1.94 0.569 1.99 0 0.0614-0.605 0.365-2.18 1.1-1.41 0.652-2.18 1.04-2.18 1.09 0 0.0412 1.97 2.26 4.36 4.95 3.78 4.22 4.58 5.14 4.36 5.01-0.0241-0.0139-3.48-2.09-7.66-4.61l-7.61-4.59-4.43 1.09c-2.44 0.598-4.48 1.09-4.53 1.09-0.0538 0-1.7-1.44-3.75-3.27l-3.65-3.27-0.85-0.409c-0.601-0.289-0.876-0.396-0.938-0.365-0.168 0.0816-10.1 9.18-10.1 9.26-0.0082 0.0477 0.451 1.46 1.02 3.14 0.571 1.68 1.04 3.06 1.04 3.07 0 0.0829-0.472-0.156-3.07-1.56-1.61-0.868-2.97-1.58-3.04-1.58-0.0672 0-0.595 0.0503-1.17 0.112l-1.05 0.112-1.2 0.897c-0.658 0.493-1.24 0.897-1.28 0.897-0.0477 0-0.702-0.173-1.45-0.385l-1.37-0.385-3.01 0.496c-1.65 0.273-3.02 0.511-3.04 0.529-0.0321 0.0276-0.246 4.56-0.246 5.22-4.9e-5 0.145-0.023 0.22-0.0666 0.22-0.0365 0-0.876-0.862-1.86-1.91z" stroke-width=".0517"/>
  <path d="m242 82.7c-0.288-0.142-0.611-0.527-0.83-0.988-0.187-0.396-0.19-0.421-0.185-1.26 6e-3 -0.906 4e-3 -0.895 0.442-2.08 0.236-0.634 0.745-1.76 0.971-2.13 0.0982-0.167 0.308-0.48 0.467-0.695 0.159-0.215 0.396-0.577 0.527-0.802 0.289-0.495 1.52-1.76 2.38-2.44 0.328-0.261 0.594-0.499 0.594-0.529 0-0.122 0.516-0.371 1.14-0.552 0.55-0.159 0.716-0.238 1.03-0.487 0.206-0.164 0.404-0.297 0.442-0.297 0.0368 0 0.324-0.0823 0.638-0.183 0.314-0.101 0.884-0.251 1.26-0.335 1.1-0.24 1.09-0.236 1.51-1.06 0.198-0.388 0.379-0.804 0.402-0.92 0.0229-0.116 0.0998-0.308 0.169-0.427 0.447-0.76 0.598-1.11 0.56-1.31-0.0402-0.215 0.117-0.607 0.307-0.765 0.0745-0.0619 0.0899-0.14 0.0611-0.31-0.0282-0.167-5e-3 -0.293 0.0878-0.474 0.123-0.24 0.163-0.434 0.0905-0.434-0.0197 0-0.301 0.165-0.625 0.366-0.592 0.367-0.72 0.468-1.5 1.18-0.453 0.411-0.963 0.72-1.1 0.666-0.0514-0.0198-0.126 0.0442-0.192 0.164-0.198 0.362-0.375 0.529-0.762 0.714-0.211 0.101-0.421 0.228-0.467 0.282-0.0453 0.0546-0.168 0.1-0.272 0.1-0.265 0.0014-0.35 0.0705-0.463 0.375-0.107 0.289-0.282 0.407-0.678 0.461-0.158 0.0211-0.267 0.0792-0.331 0.178-0.0528 0.0804-0.263 0.228-0.468 0.328-0.206 0.0994-0.417 0.221-0.472 0.27-0.0543 0.0491-0.255 0.159-0.447 0.244-0.192 0.0847-0.453 0.225-0.583 0.308-0.347 0.228-0.754 0.257-1.27 0.0895-0.23-0.0758-0.495-0.176-0.586-0.223-0.232-0.117-0.465-0.607-0.598-1.26-0.0611-0.299-0.128-0.56-0.147-0.579-0.0198-0.0198-0.124 3.81e-4 -0.232 0.0449-0.505 0.209-0.805 0.136-0.87-0.209-0.0219-0.117-0.0625-0.213-0.0901-0.213s-0.128 0.117-0.223 0.259c-0.155 0.23-0.202 0.261-0.442 0.278-0.187 0.0134-0.339 0.075-0.501 0.204-0.27 0.215-0.821 0.326-1.61 0.326-0.43 0-0.537-0.0242-0.901-0.202-0.43-0.211-1.09-0.771-1.23-1.04-0.0443-0.0868-0.101-0.278-0.125-0.427-0.0245-0.148-0.11-0.461-0.19-0.697-0.083-0.244-0.145-0.569-0.145-0.76 0-0.394-0.213-1.35-0.337-1.51-0.084-0.109-0.092-0.108-0.211 0.0388-0.0687 0.0838-0.168 0.255-0.221 0.383-0.0659 0.157-0.2 0.299-0.427 0.449-0.196 0.13-0.392 0.326-0.484 0.484-0.0853 0.145-0.318 0.415-0.518 0.6-0.208 0.192-0.411 0.447-0.474 0.598-0.152 0.354-0.272 0.449-0.461 0.364-0.181-0.0826-0.225-0.0371-0.396 0.421-0.0855 0.228-0.176 0.362-0.276 0.407-0.0819 0.0373-0.206 0.178-0.274 0.314-0.0802 0.157-0.196 0.276-0.322 0.328-0.238 0.0998-0.326 0.198-0.562 0.642-0.115 0.215-0.228 0.348-0.305 0.36-0.322 0.0474-0.402 0.0903-0.531 0.28-0.19 0.282-0.916 0.765-1.35 0.901-0.432 0.135-1.07 0.143-1.49 0.0192-0.708-0.209-1.38-1.2-1.57-2.32-0.128-0.754-0.121-1.02 0.0268-1.16 0.103-0.0929 0.115-0.16 0.0836-0.457-0.0459-0.44 0.0794-0.842 0.404-1.29 0.13-0.181 0.347-0.567 0.48-0.859 0.447-0.969 1.15-2.15 1.51-2.53 1.17-1.28 2.59-2.55 2.84-2.55 0.0486 0 0.246-0.122 0.436-0.27 0.192-0.149 0.449-0.303 0.575-0.343 0.125-0.0402 0.339-0.138 0.476-0.217 0.137-0.0792 0.318-0.144 0.404-0.144 0.0857 0 0.248-0.039 0.362-0.0866 0.163-0.068 0.261-0.0724 0.457-0.02 0.223 0.0592 0.268 0.052 0.417-0.0657 0.512-0.404 1.45 0.142 1.74 1 0.146 0.449 0.307 0.676 0.428 0.602 0.0406-0.0251 0.141-0.198 0.225-0.385 0.0826-0.187 0.227-0.436 0.32-0.556 0.293-0.373 0.529-0.863 0.765-1.59 0.251-0.771 0.425-1.16 0.882-1.98 0.168-0.301 0.352-0.693 0.409-0.872 0.0569-0.178 0.194-0.43 0.307-0.56 0.111-0.13 0.244-0.352 0.293-0.491 0.0495-0.141 0.227-0.478 0.394-0.75 0.167-0.272 0.347-0.623 0.4-0.779 0.109-0.322 0.238-0.457 0.598-0.63 0.248-0.119 0.253-0.129 0.255-0.434 3e-3 -0.339 0.0625-0.442 0.647-1.13 0.161-0.188 0.623-0.842 1.03-1.45 0.779-1.18 1.58-2.11 2.02-2.36 0.444-0.248 0.908-0.144 1.37 0.308 0.541 0.527 0.6 0.758 0.392 1.54-0.0697 0.263-0.154 0.588-0.187 0.724-0.0333 0.135-0.161 0.491-0.284 0.792-0.123 0.301-0.446 1.09-0.718 1.76-0.314 0.771-0.548 1.26-0.64 1.34-0.0804 0.0693-0.24 0.31-0.352 0.535-0.113 0.225-0.286 0.499-0.381 0.609-0.111 0.128-0.187 0.297-0.209 0.467-0.025 0.192-0.0849 0.31-0.217 0.427-0.109 0.096-0.225 0.291-0.286 0.484-0.0563 0.177-0.194 0.461-0.308 0.628-0.113 0.169-0.291 0.467-0.396 0.663-0.132 0.248-0.248 0.381-0.375 0.432-0.211 0.0876-0.352 0.366-0.352 0.697 0 0.248-0.219 0.518-0.423 0.518-0.149 0-0.274 0.184-0.368 0.535-0.0756 0.288-0.288 0.459-0.644 0.527-0.31 0.0581-0.367 0.166-0.282 0.533 0.0796 0.345 0.0744 0.356-0.482 0.998-0.133 0.153-0.242 0.328-0.242 0.388 0 0.0609-0.0817 0.23-0.182 0.377-0.238 0.352-0.322 0.655-0.552 2-0.221 1.3-0.274 2.27-0.144 2.63 0.0474 0.134 0.0861 0.404 0.0861 0.598s0.0166 0.396 0.0369 0.449c0.0541 0.141 0.293 0.118 0.491-0.048 0.0948-0.0794 0.364-0.242 0.598-0.36 0.543-0.272 1.13-0.701 1.34-0.988 0.0935-0.122 0.268-0.272 0.388-0.335 0.12-0.0615 0.288-0.186 0.371-0.278 0.0838-0.091 0.354-0.316 0.602-0.499 0.539-0.4 0.918-0.771 1.13-1.1 0.18-0.284 0.375-0.474 0.83-0.807 0.524-0.383 0.868-0.307 0.737 0.164-0.17 0.611-0.0242 0.689 0.489 0.263 0.537-0.447 2.08-1.47 2.65-1.75 1.09-0.546 2.27-0.927 2.86-0.927 0.329 0 0.446-0.0371 0.977-0.308 0.71-0.362 1.32-0.545 1.81-0.545 0.562 0 0.693 0.127 0.834 0.811 0.0798 0.387 0.202 0.497 0.339 0.301 0.129-0.184 0.657-0.503 0.832-0.503 0.373 0 0.59 0.366 0.72 1.21 0.143 0.937 7e-3 1.51-0.541 2.28-0.141 0.2-0.297 0.516-0.348 0.701-0.398 1.44-1.07 3.18-1.34 3.48-0.0845 0.0933-0.141 0.232-0.141 0.347 0 0.105-0.0537 0.282-0.119 0.394-0.0657 0.112-0.151 0.352-0.19 0.537-0.039 0.184-0.122 0.436-0.185 0.56-0.0628 0.124-0.114 0.238-0.114 0.253 0 0.0146 0.138 0.115 0.307 0.223 0.354 0.227 0.861 0.773 1.01 1.09 0.0893 0.188 0.0924 0.255 0.025 0.524-0.122 0.487-0.211 0.609-0.594 0.813-0.47 0.251-0.796 0.303-1.06 0.168-0.436-0.221-1.09-0.455-1.18-0.421-0.0512 0.0196-0.0931 0.0971-0.0931 0.172 0 0.075-0.0564 0.187-0.125 0.249-0.069 0.0624-0.24 0.333-0.379 0.602-0.276 0.531-0.554 0.887-0.693 0.887-0.17 0-0.379 0.293-0.503 0.708-0.147 0.493-0.263 0.678-0.444 0.705-0.0929 0.0136-0.217 0.166-0.417 0.514-0.289 0.505-0.745 1.13-0.952 1.31-0.0627 0.0543-0.194 0.125-0.293 0.156-0.0981 0.0314-0.196 0.0967-0.219 0.145-0.24 0.522-0.371 0.718-0.657 0.977-0.183 0.167-0.421 0.341-0.529 0.387-0.131 0.0548-0.211 0.139-0.24 0.251-0.056 0.223-0.771 0.963-1.19 1.24-0.184 0.119-0.453 0.347-0.598 0.506-0.145 0.16-0.432 0.392-0.64 0.516-0.208 0.124-0.514 0.341-0.682 0.482-0.301 0.253-0.655 0.459-0.939 0.546-0.0802 0.0248-0.27 0.124-0.423 0.221-0.316 0.2-0.606 0.225-0.908 0.0758zm1.32-2.93c0.487-0.196 0.805-0.367 1.03-0.552 0.176-0.148 0.508-0.373 0.741-0.501 0.27-0.148 0.56-0.381 0.807-0.646 0.213-0.228 0.666-0.691 1.01-1.03 0.343-0.337 0.703-0.737 0.798-0.887 0.0956-0.151 0.314-0.419 0.487-0.596 0.173-0.177 0.373-0.438 0.446-0.579 0.202-0.396 0.604-1.02 0.819-1.28 0.107-0.127 0.284-0.402 0.392-0.609 0.109-0.208 0.278-0.453 0.377-0.546 0.232-0.217 0.194-0.324-0.111-0.305-0.131 0.0076-0.341-0.0175-0.467-0.0558-0.211-0.0642-0.244-0.0573-0.396 0.0859-0.223 0.209-0.423 0.301-1.14 0.531-0.335 0.107-0.76 0.286-0.944 0.396-0.184 0.111-0.404 0.223-0.487 0.248-0.0838 0.0251-0.345 0.189-0.579 0.364-0.234 0.175-0.514 0.364-0.621 0.419-0.107 0.0548-0.209 0.152-0.23 0.215-0.0824 0.259-0.398 0.617-0.546 0.617-0.101 0-0.187 0.064-0.274 0.206-0.0701 0.113-0.371 0.436-0.668 0.716-0.44 0.415-0.556 0.562-0.615 0.781-0.04 0.148-0.152 0.419-0.249 0.602-0.0975 0.183-0.177 0.398-0.177 0.478 0 0.0802-0.0428 0.248-0.0954 0.371-0.142 0.339-0.341 1.36-0.299 1.54 0.0442 0.178 0.139 0.305 0.228 0.305 0.0348 0 0.381-0.128 0.769-0.284zm-13.7-11.5c0.0964-0.0499 0.32-0.208 0.497-0.35 0.177-0.143 0.459-0.354 0.626-0.468 0.168-0.115 0.552-0.444 0.853-0.731 0.301-0.288 0.981-0.916 1.51-1.4 0.621-0.564 0.975-0.931 0.998-1.03 0.0207-0.0878 0.194-0.337 0.385-0.556 0.19-0.217 0.383-0.465 0.427-0.548 0.0433-0.0838 0.276-0.413 0.518-0.731 0.638-0.842 1.02-1.44 0.977-1.52-0.115-0.185-0.343-0.186-0.939-0.0025-0.455 0.141-0.659 0.174-0.893 0.148-0.282-0.032-0.331-0.0154-0.745 0.251-0.396 0.255-0.467 0.28-0.682 0.244-0.234-0.0396-0.246-0.0329-0.457 0.259-0.246 0.343-1.05 0.998-1.3 1.06-0.129 0.0335-0.215 0.13-0.345 0.387-0.095 0.188-0.27 0.415-0.388 0.505-0.423 0.318-0.678 0.602-0.678 0.754 0 0.0823-0.106 0.297-0.236 0.48-0.129 0.181-0.255 0.394-0.28 0.47-0.0244 0.0777-0.14 0.27-0.257 0.427-0.117 0.157-0.307 0.533-0.423 0.834-0.206 0.533-0.209 0.56-0.147 1.01 0.0771 0.562 0.202 0.703 0.569 0.644 0.13-0.0208 0.316-0.0786 0.411-0.128zm16.4-0.242c0.244-0.117 0.569-0.308 0.724-0.427 0.251-0.192 0.318-0.213 0.666-0.213 0.339 0 0.417-0.023 0.617-0.183 0.126-0.101 0.267-0.183 0.31-0.183 0.0438 0 0.198-0.122 0.343-0.27 0.144-0.149 0.406-0.343 0.583-0.43 0.176-0.088 0.381-0.24 0.453-0.339 0.0729-0.0984 0.167-0.179 0.209-0.179 0.0425 0 0.163-0.107 0.268-0.238 0.113-0.141 0.299-0.278 0.455-0.339 0.186-0.071 0.385-0.236 0.67-0.554 0.223-0.249 0.567-0.554 0.767-0.676 0.211-0.13 0.449-0.345 0.573-0.516 0.116-0.161 0.314-0.347 0.442-0.411 0.369-0.188 0.651-0.809 0.409-0.901-0.0516-0.0198-0.232 0.036-0.402 0.124-0.179 0.0931-0.407 0.16-0.546 0.16-0.265 0-1.09 0.379-1.46 0.674-0.119 0.0939-0.329 0.217-0.468 0.272-0.139 0.0552-0.297 0.169-0.352 0.253-0.115 0.175-0.531 0.383-0.773 0.385-0.121 9.35e-4 -0.31 0.138-0.72 0.52-0.307 0.286-0.684 0.588-0.842 0.672-0.463 0.249-0.965 0.619-1.1 0.807-0.0689 0.0967-0.348 0.366-0.621 0.596-0.409 0.347-0.533 0.493-0.703 0.845-0.263 0.539-0.272 0.764-0.0353 0.764 0.0495 0 0.289-0.096 0.533-0.213zm-4.38-12.2c0.366-0.571 0.746-1.04 0.916-1.12 0.141-0.0691 0.259-0.227 0.735-0.981 0.196-0.31 0.931-1.35 1.18-1.66 0.132-0.168 0.339-0.55 0.459-0.849 0.12-0.299 0.299-0.659 0.4-0.798 0.166-0.23 0.18-0.289 0.163-0.674-0.0299-0.693-0.0685-0.655-1.09 1.04-0.242 0.402-0.56 0.986-0.706 1.3-0.219 0.47-0.337 0.634-0.684 0.962-0.234 0.221-0.436 0.468-0.459 0.562-0.0221 0.0914-0.0906 0.276-0.152 0.409-0.0615 0.134-0.127 0.367-0.145 0.518-0.028 0.232-0.0788 0.316-0.337 0.548-0.305 0.276-0.617 0.8-0.617 1.04 0 0.181 0.0901 0.103 0.345-0.295zm-30.3 20c-0.121-0.0434-0.316-0.138-0.434-0.211-0.117-0.0726-0.284-0.132-0.369-0.132-0.2 0-0.381-0.228-0.432-0.545-0.0373-0.234-0.0581-0.253-0.491-0.453-0.385-0.177-0.592-0.343-1.4-1.11-0.52-0.497-1.15-1.14-1.4-1.42-0.533-0.613-0.933-1-1.37-1.33-0.177-0.132-0.421-0.356-0.541-0.497-0.121-0.141-0.415-0.409-0.653-0.596-0.506-0.396-0.581-0.476-1.14-1.22-0.23-0.307-0.537-0.64-0.68-0.741-0.364-0.251-0.533-0.447-0.626-0.722-0.0678-0.2-0.12-0.248-0.356-0.326-0.328-0.108-0.649-0.396-0.649-0.579 0-0.0965-0.076-0.164-0.295-0.263-0.225-0.102-0.508-0.362-1.2-1.1-0.501-0.533-0.973-1.05-1.05-1.16-0.0779-0.103-0.171-0.187-0.208-0.187-0.137 0-0.962 1.08-0.962 1.26 0 0.0489-0.0522 0.162-0.116 0.251-0.0638 0.0897-0.163 0.324-0.219 0.52-0.0569 0.196-0.289 0.777-0.518 1.29-0.449 1.01-0.571 1.46-0.666 2.49-0.075 0.802-0.156 0.95-0.556 1.02-0.153 0.0265-0.411 0.0184-0.604-0.0188-0.889-0.173-0.975-0.24-1.4-1.09-0.159-0.318-0.337-0.67-0.396-0.783-0.103-0.196-0.102-0.228 0.0198-0.823 0.112-0.546 0.208-0.779 0.815-1.98 0.379-0.752 0.857-1.63 1.06-1.94 0.227-0.354 0.425-0.752 0.501-1.01 0.0701-0.234 0.238-0.586 0.371-0.783 0.135-0.198 0.246-0.421 0.246-0.497 0-0.0929-0.12-0.242-0.366-0.455-0.202-0.174-0.383-0.383-0.404-0.465-0.0204-0.0813-0.153-0.228-0.295-0.326-0.491-0.337-0.824-0.824-0.824-1.2 3.8e-4 -0.272 0.208-0.537 0.682-0.87 0.451-0.318 1.7-0.975 1.85-0.975 0.128 0 1.02-0.367 1.2-0.495 0.0887-0.0626 0.303-0.147 0.474-0.186 0.404-0.0933 0.562-0.257 0.796-0.832 0.105-0.257 0.282-0.619 0.392-0.804 0.194-0.324 0.581-1.16 0.583-1.26 7.2e-4 -0.028 0.096-0.198 0.211-0.381 0.115-0.181 0.308-0.626 0.43-0.988 0.182-0.545 0.248-0.674 0.383-0.739 0.11-0.0539 0.156-0.119 0.142-0.2-0.0112-0.0657-0.0295-0.27-0.0406-0.455-0.0111-0.184-0.0613-0.476-0.112-0.649-0.0975-0.335-0.0619-0.672 0.0904-0.855 0.248-0.299 0.96-0.352 1.43-0.107 0.699 0.366 0.849 0.506 1.15 1.08 0.278 0.529 0.288 0.562 0.259 0.96-0.0183 0.255-0.0731 0.48-0.145 0.594-0.0634 0.0998-0.19 0.303-0.282 0.451-0.187 0.303-0.882 2.19-0.941 2.57-0.0381 0.238-0.0375 0.238 0.135 0.196 0.0954-0.024 0.263-0.121 0.369-0.215 0.187-0.164 0.634-0.307 0.963-0.307 0.0779 0 0.453-0.096 0.834-0.213 0.381-0.117 0.775-0.213 0.876-0.213 0.101-3.81e-4 0.48-0.0813 0.845-0.18 0.824-0.223 1.45-0.293 1.65-0.185 0.119 0.0634 0.164 0.0636 0.24 7.92e-4 0.0514-0.0426 0.0935-0.111 0.0935-0.152 0-0.227 0.465-0.358 0.741-0.209 0.0998 0.0535 0.15 0.0413 0.261-0.0624 0.15-0.141 0.459-0.248 0.72-0.248 0.0924 0 0.168-0.0265 0.168-0.0588 0-0.099 0.223-0.186 0.8-0.312 0.394-0.0859 0.67-0.19 0.958-0.366 0.263-0.159 0.745-0.35 1.38-0.55 0.537-0.168 1.09-0.358 1.23-0.423 0.303-0.138 0.569-0.48 0.748-0.96l0.127-0.339-0.173-0.28c-0.116-0.187-0.236-0.301-0.368-0.343-0.107-0.035-0.326-0.158-0.486-0.274-0.16-0.116-0.4-0.228-0.535-0.251-0.352-0.0579-1-0.291-1.26-0.453-0.122-0.0764-0.299-0.137-0.396-0.136-0.0962 0.0015-0.362-0.0824-0.592-0.187-0.228-0.104-0.489-0.19-0.579-0.19-0.0891-1.82e-4 -0.238-0.0402-0.331-0.0889-0.123-0.064-0.278-0.0784-0.562-0.052-0.312 0.0291-0.425 0.0152-0.552-0.0684-0.125-0.0819-0.284-0.103-0.718-0.0971-0.307 0.0043-0.737-0.0204-0.954-0.055-0.653-0.104-1.58-0.128-2.23-0.0592-0.606 0.0647-0.611 0.0642-0.92-0.103l-0.31-0.168-0.329 0.0998c-0.265 0.0802-0.506 0.0941-1.23 0.0706-0.64-0.0206-1.04-0.0036-1.37 0.0585-0.257 0.0482-0.946 0.122-1.53 0.163-0.889 0.063-1.09 0.0954-1.23 0.196-0.118 0.087-0.211 0.109-0.335 0.0784-0.0948-0.023-0.316-0.048-0.493-0.0554-0.293-0.0124-0.335 0.0035-0.497 0.186-0.151 0.17-0.204 0.194-0.368 0.161-0.144-0.0288-0.225-0.0077-0.326 0.0859-0.0739 0.0682-0.316 0.206-0.541 0.307-0.223 0.1-0.451 0.251-0.505 0.333-0.0546 0.0832-0.223 0.217-0.373 0.295-0.215 0.113-0.289 0.194-0.343 0.375-0.138 0.459-0.845 0.948-1.45 1-0.724 0.0649-1.21-0.242-1.34-0.842-0.104-0.486-2e-3 -0.735 0.51-1.25 0.541-0.543 0.937-0.739 2.13-1.06 0.503-0.134 1.09-0.316 1.3-0.402 0.579-0.238 1.26-0.364 1.5-0.278 0.276 0.1 0.4 0.0859 0.56-0.0649 0.0983-0.0924 0.213-0.132 0.369-0.127 0.125 0.0037 0.461-0.055 0.745-0.13 0.381-0.101 0.569-0.123 0.716-0.0844 0.143 0.0381 0.248 0.027 0.377-0.0404 0.099-0.0512 0.27-0.0931 0.383-0.0931 0.111 0 0.4-0.0548 0.642-0.122 0.242-0.067 0.598-0.122 0.79-0.122 0.192-1.91e-4 0.737-0.0807 1.21-0.179 0.472-0.0981 1.19-0.209 1.6-0.246 0.638-0.0586 0.764-0.055 0.92 0.0265 0.232 0.12 0.39 0.118 1.01-0.0087 0.47-0.0967 0.529-0.0967 0.971 1.9e-4 0.421 0.0925 0.487 0.0939 0.647 0.0116 0.242-0.125 0.537-0.115 0.805 0.0284 0.181 0.0973 0.259 0.108 0.406 0.0568 0.194-0.0678 2.02-0.0419 2.13 0.0305 0.0371 0.0228 0.295 0.0659 0.571 0.0956 0.665 0.071 0.937 0.136 1.26 0.303 0.171 0.0878 0.335 0.128 0.453 0.11 0.136-0.02 0.303 0.0358 0.615 0.208 0.236 0.129 0.506 0.234 0.6 0.234 0.251 0.0014 0.638 0.221 0.741 0.421 0.0499 0.0964 0.209 0.251 0.356 0.343 0.238 0.151 0.531 0.554 0.531 0.731 0 0.0348 0.137 0.198 0.305 0.364 0.259 0.255 0.305 0.335 0.305 0.531 0 0.127 0.0548 0.333 0.122 0.459 0.153 0.286 0.162 0.878 0.0253 1.74-0.111 0.701-0.303 1.09-0.657 1.33-0.125 0.0845-0.295 0.27-0.381 0.411-0.0965 0.162-0.249 0.307-0.409 0.388-0.14 0.0716-0.377 0.223-0.526 0.335-0.148 0.113-0.341 0.223-0.427 0.242-0.0862 0.02-0.611 0.17-1.17 0.333-0.554 0.163-1.09 0.297-1.18 0.297-0.106 0-0.263 0.0804-0.419 0.213-0.255 0.217-0.55 0.333-0.853 0.335-0.0927 1.82e-4 -0.428 0.0568-0.746 0.126-0.318 0.0689-0.606 0.108-0.64 0.0874-0.071-0.044-0.925 0.116-1.37 0.255-0.168 0.0529-0.484 0.174-0.703 0.27-0.35 0.153-0.427 0.166-0.634 0.109-0.192-0.0531-0.278-0.0455-0.47 0.0413-0.192 0.0872-0.265 0.0931-0.394 0.0339-0.137-0.0626-0.185-0.0531-0.35 0.0701-0.265 0.196-0.663 0.303-0.971 0.257-0.19-0.0284-0.333-0.0051-0.556 0.0906-0.198 0.0853-0.36 0.116-0.476 0.0903-0.192-0.0425-0.369 0.0122-0.952 0.297-0.379 0.185-0.392 0.186-0.569 0.0849-0.259-0.149-0.333-0.133-0.646 0.143-0.268 0.236-0.293 0.246-0.588 0.209-0.251-0.0307-0.371-0.0093-0.651 0.115-0.385 0.171-0.539 0.352-0.756 0.889-0.0807 0.198-0.23 0.491-0.331 0.651-0.101 0.159-0.184 0.316-0.184 0.347 0 0.121-0.491 1.06-0.611 1.17-0.0695 0.0628-0.278 0.398-0.465 0.745-0.402 0.748-0.398 0.826 0.056 1.16 0.176 0.13 0.731 0.586 1.23 1.01s1.02 0.845 1.14 0.931c0.176 0.118 0.228 0.194 0.228 0.329 0 0.202 0.138 0.286 0.276 0.171 0.0767-0.0638 0.141-0.0421 0.381 0.128 0.495 0.352 0.992 0.813 1.03 0.956 0.0209 0.0826 0.0811 0.137 0.152 0.137 0.179 0 0.773 0.32 1.18 0.636 0.202 0.156 0.708 0.606 1.13 1 0.436 0.411 1.4 1.19 2.25 1.83 2.23 1.66 3.24 2.51 3.64 3.07 0.141 0.192 0.331 0.358 0.522 0.453 0.326 0.165 1.12 0.887 1.4 1.27 0.146 0.2 0.173 0.297 0.173 0.615v0.379l-0.411 0.362c-0.63 0.556-0.657 0.569-1.14 0.566-0.236-0.0015-0.527-0.0381-0.649-0.0815zm-14.9-16.1c0.171-0.204 0.545-1.12 0.516-1.27-0.0274-0.14-0.234-0.145-0.451-0.0112-0.107 0.0659-0.301 0.118-0.436 0.118-0.175 0-0.329 0.0566-0.541 0.198-0.419 0.28-0.415 0.398 0.0202 0.729 0.626 0.478 0.674 0.491 0.891 0.23zm-52.6 11.1c-0.733-0.257-1.32-0.912-1.54-1.72-0.178-0.651-0.182-1.09-0.0181-1.89 0.0855-0.419 0.181-0.828 0.211-0.908 0.0309-0.0813 0.0815-0.411 0.113-0.731 0.0727-0.754 0.179-1.05 0.615-1.71 0.52-0.79 0.604-0.981 0.604-1.35 1.2e-4 -0.335 0.0876-0.55 0.371-0.912 0.0868-0.111 0.288-0.518 0.444-0.903 0.388-0.948 0.508-1.15 0.857-1.41 0.39-0.295 0.428-0.373 0.409-0.845-0.0147-0.373-2e-3 -0.415 0.198-0.678 0.117-0.154 0.31-0.455 0.428-0.668 0.121-0.219 0.345-0.499 0.51-0.642 0.227-0.194 0.328-0.341 0.432-0.625 0.142-0.39 0.301-0.64 1.22-1.92 0.725-1.01 0.885-1.18 1.21-1.26 0.142-0.0356 0.288-0.0998 0.322-0.142 0.0354-0.0426 0.105-0.293 0.156-0.556 0.0882-0.461 0.104-0.491 0.465-0.845 0.206-0.202 0.444-0.478 0.531-0.611 0.209-0.322 0.845-1.08 0.956-1.15 0.0481-0.027 0.17-0.213 0.272-0.413 0.176-0.348 0.36-0.556 1.1-1.24 0.44-0.409 1.05-1.11 1.17-1.36 0.0569-0.11 0.238-0.284 0.406-0.385 0.284-0.175 0.371-0.308 0.249-0.383-0.0291-0.018-0.263 0.0076-0.52 0.0568-0.257 0.0491-0.651 0.0857-0.876 0.0809-0.265-0.0055-0.505 0.0293-0.684 0.099-0.151 0.0592-0.385 0.121-0.518 0.137-0.134 0.0164-0.301 0.0824-0.371 0.147-0.105 0.0962-0.208 0.115-0.585 0.105-0.367-0.0095-0.499 0.0127-0.665 0.113-0.114 0.0687-0.482 0.179-0.817 0.246-0.335 0.0664-0.891 0.234-1.24 0.373-0.552 0.223-0.665 0.248-0.946 0.215-0.31-0.0366-0.331-0.0293-0.607 0.209-0.278 0.24-0.352 0.267-0.956 0.343-0.151 0.019-0.493 0.13-0.762 0.246-0.268 0.117-0.585 0.211-0.705 0.211-0.251 0-0.903 0.318-1.6 0.783-0.176 0.117-0.303 0.153-0.505 0.145-0.236-0.0103-0.303 0.018-0.526 0.221-0.141 0.128-0.467 0.348-0.725 0.489-0.388 0.213-0.503 0.312-0.67 0.583-0.111 0.179-0.371 0.506-0.581 0.729-0.318 0.339-0.411 0.404-0.579 0.402-0.434-5.71e-4 -0.754-0.354-0.821-0.904-0.0304-0.257-5.2e-4 -0.362 0.272-0.937 0.48-1.02 0.71-1.25 1.51-1.49 0.516-0.162 1.66-0.678 1.94-0.87 0.19-0.134 0.276-0.158 0.495-0.133 0.225 0.0253 0.354-0.0128 0.847-0.251 0.32-0.155 0.6-0.308 0.619-0.341 0.0202-0.0328 0.268-0.13 0.55-0.217 0.282-0.0861 0.529-0.183 0.548-0.215 0.0718-0.116 0.423-0.253 1.55-0.607 0.887-0.278 1.23-0.358 1.47-0.348 0.263 0.011 0.364-0.0167 0.564-0.153 0.133-0.0916 0.286-0.166 0.337-0.166 0.0522 0 0.259-0.0455 0.459-0.101 0.2-0.0556 0.434-0.106 0.522-0.112 0.0876-0.0059 0.259-0.0718 0.379-0.146 0.17-0.105 0.299-0.133 0.571-0.123 0.194 0.0071 0.501-0.0186 0.682-0.0573 0.181-0.0386 0.461-0.0703 0.623-0.0703 0.162 0 0.385-0.0381 0.495-0.0847 0.221-0.0931 0.716-0.2 1.33-0.284 0.217-0.0301 0.533-0.0834 0.701-0.119 0.168-0.0352 0.377-0.0482 0.467-0.0286 0.0895 0.0196 0.308-0.011 0.487-0.0678 0.244-0.0775 0.583-0.107 1.36-0.116 0.625-0.0078 1.11-0.0413 1.21-0.0847 0.0965-0.0396 0.234-0.0535 0.305-0.031 0.36 0.114 2.15 0.0095 2.67-0.157 0.0998-0.0316 0.255-0.0297 0.381 0.0051 0.151 0.0417 0.251 0.0369 0.35-0.0169 0.076-0.0415 0.303-0.0798 0.503-0.0851 0.202-0.0053 0.857-0.0408 1.46-0.0788 0.794-0.0503 1.16-0.0508 1.34-0.0026 0.308 0.0828 0.678 0.457 0.762 0.773 0.0929 0.345 0.0975 0.912 0.0105 1.31l-0.0771 0.358 0.183 0.19c0.228 0.238 0.47 0.714 0.556 1.1 0.0554 0.248 0.0455 0.364-0.0626 0.748-0.0705 0.251-0.194 0.844-0.274 1.31-0.133 0.783-0.162 0.876-0.335 1.05-0.157 0.162-0.198 0.267-0.244 0.615-0.0826 0.647-0.261 1.12-0.647 1.71-0.125 0.19-0.23 0.451-0.272 0.67-0.0775 0.419-0.125 0.52-0.4 0.844-0.113 0.133-0.276 0.394-0.364 0.579-0.192 0.411-1.84 2.78-2.19 3.18-0.255 0.276-0.263 0.28-0.586 0.251-0.289-0.024-0.339-0.0109-0.427 0.113-0.0666 0.0952-0.0876 0.211-0.0645 0.358 0.0315 0.2-0.0229 0.297-0.722 1.29-0.611 0.87-0.792 1.18-0.95 1.61-0.107 0.297-0.316 0.743-0.467 0.992-0.149 0.248-0.345 0.645-0.434 0.884-0.0891 0.238-0.24 0.562-0.335 0.72-0.208 0.345-0.48 0.979-0.48 1.12 0 0.204 0.223 0.044 0.609-0.436 0.649-0.805 1.53-1.64 1.84-1.74 0.196-0.0621 0.284-0.131 0.347-0.272 0.0592-0.134 0.168-0.225 0.375-0.312 0.208-0.0876 0.337-0.196 0.451-0.375 0.0872-0.138 0.2-0.251 0.248-0.251s0.289-0.198 0.533-0.442c0.649-0.646 1.81-1.28 2.8-1.54 0.956-0.249 2.28 0.0329 2.76 0.581 0.282 0.333 0.312 0.566 0.2 1.46-0.123 0.967-0.314 1.8-0.678 2.93-0.267 0.834-0.274 0.88-0.259 1.54 0.0142 0.606 0.0284 0.684 0.128 0.703 0.0617 0.0118 0.171-0.0326 0.244-0.0988 0.0724-0.0661 0.225-0.167 0.337-0.225 0.113-0.0569 0.369-0.28 0.571-0.495 0.208-0.221 0.48-0.442 0.628-0.506 0.145-0.0642 0.556-0.392 0.92-0.735 0.362-0.341 0.904-0.785 1.21-0.988 0.303-0.202 0.655-0.463 0.783-0.577 0.392-0.352 0.655-0.409 0.809-0.174 0.0923 0.141 0.0908 0.179-0.0227 0.564-0.067 0.227-0.141 0.522-0.163 0.657-0.0646 0.377-0.615 1.48-0.764 1.52-0.0689 0.0219-0.276 0.172-0.461 0.333-0.185 0.162-0.48 0.352-0.657 0.425-0.208 0.0842-0.358 0.192-0.427 0.308-0.192 0.324-0.274 0.375-0.55 0.333-0.288-0.043-0.394 0.035-0.548 0.4-0.0491 0.116-0.213 0.333-0.366 0.482-0.213 0.208-0.337 0.278-0.537 0.305-0.232 0.0308-0.268 0.0583-0.328 0.244-0.099 0.307-1.06 0.904-1.59 0.994-0.368 0.0615-0.385 0.0581-0.676-0.128-0.164-0.105-0.326-0.19-0.36-0.19-0.165 0-0.415-0.308-0.634-0.785-0.209-0.451-0.246-0.598-0.268-1.04-0.0145-0.301 1e-3 -0.546 0.0377-0.59 0.0407-0.0489 0.0428-0.147 6e-3 -0.28-0.0425-0.154-8e-3 -0.487 0.141-1.36 0.109-0.636 0.242-1.33 0.299-1.54 0.13-0.491 0.113-1.47-0.0255-1.54-0.0503-0.024-0.178-0.0885-0.284-0.144-0.32-0.166-0.43-0.131-0.632 0.198-0.204 0.333-0.288 0.385-0.535 0.333-0.146-0.0293-0.202 0.0045-0.392 0.236-0.139 0.17-0.352 0.333-0.571 0.436-0.192 0.0906-0.446 0.246-0.566 0.343-0.119 0.0982-0.242 0.179-0.272 0.179-0.101 0-0.891 0.619-1.02 0.798-0.0693 0.0975-0.165 0.177-0.211 0.177-0.0471 0-0.145 0.0806-0.217 0.179-0.0727 0.0984-0.249 0.242-0.394 0.318-0.144 0.0764-0.289 0.198-0.322 0.27-0.0331 0.0726-0.165 0.183-0.293 0.246-0.146 0.0712-0.282 0.206-0.366 0.358-0.198 0.362-0.238 0.392-0.468 0.356-0.308-0.0503-0.444 0.0556-0.554 0.434-0.0862 0.297-0.189 0.428-0.941 1.2-0.514 0.531-0.904 0.99-0.998 1.17-0.169 0.333-0.35 0.52-0.786 0.813-0.522 0.35-0.794 0.217-1.15-0.566-0.177-0.39-0.186-0.44-0.119-0.68 0.0398-0.142 0.0543-0.314 0.0324-0.383-0.0615-0.194 0.427-1.58 0.735-2.09 0.358-0.594 0.626-1.45 0.455-1.45-0.031 0-0.225 0.101-0.432 0.223-0.421 0.251-0.701 0.286-0.836 0.107-0.146-0.194-0.0763-1.01 0.123-1.45 0.209-0.459 0.505-0.826 0.741-0.929 0.103-0.044 0.727-0.613 1.39-1.27 1.13-1.11 1.22-1.22 1.47-1.73 0.148-0.295 0.316-0.666 0.375-0.824 0.0592-0.157 0.159-0.333 0.223-0.39 0.063-0.0571 0.115-0.142 0.115-0.188s0.096-0.18 0.213-0.297c0.129-0.129 0.213-0.272 0.213-0.366 0-0.175 0.257-0.765 0.56-1.29 0.114-0.196 0.381-0.727 0.594-1.18s0.495-1.05 0.63-1.34c0.135-0.286 0.375-0.826 0.535-1.2 0.345-0.809 0.623-1.32 0.998-1.83 0.151-0.206 0.375-0.573 0.499-0.819 0.123-0.244 0.286-0.527 0.362-0.626 0.0762-0.099 0.318-0.489 0.541-0.866 0.221-0.375 0.537-0.857 0.701-1.07 0.164-0.213 0.358-0.51 0.434-0.659 0.0752-0.149 0.187-0.343 0.249-0.43 0.14-0.198 0.103-0.236-0.232-0.236-0.308 0-0.602-0.132-0.653-0.295-0.0598-0.188-0.284-0.345-0.796-0.556l-0.487-0.2-1.01 0.0697c-0.552 0.0383-1.54 0.0628-2.19 0.0545-1.36-0.0172-2.32 0.0729-2.51 0.232-0.158 0.143-0.144 0.388 0.0444 0.773l0.159 0.326-0.196 0.347c-0.147 0.261-0.369 0.491-0.897 0.935-0.387 0.324-0.8 0.724-0.918 0.889-0.119 0.165-0.322 0.367-0.449 0.447-0.217 0.137-0.783 0.785-0.783 0.897-3e-5 0.027-0.0514 0.164-0.114 0.305-0.0627 0.141-0.124 0.289-0.137 0.329-0.0484 0.153-0.708 0.975-1.03 1.28-0.23 0.221-0.385 0.32-0.495 0.32-0.246 3.6e-5 -0.312 0.127-0.265 0.506 0.0265 0.211 0.018 0.345-0.0234 0.371-0.0356 0.0221-0.213 0.293-0.396 0.602-0.182 0.308-0.392 0.617-0.467 0.684-0.162 0.146-0.569 0.939-0.665 1.29-0.0804 0.299-0.362 0.724-0.92 1.39-0.514 0.615-0.594 0.771-0.672 1.32-0.0681 0.482-0.356 1.09-0.67 1.42-0.134 0.14-0.189 0.28-0.24 0.598-0.0363 0.228-0.122 0.558-0.19 0.731-0.0684 0.174-0.272 0.71-0.455 1.19-0.182 0.484-0.383 0.963-0.444 1.07-0.0627 0.104-0.225 0.369-0.362 0.592-0.168 0.272-0.27 0.529-0.316 0.792-0.0379 0.213-0.134 0.636-0.213 0.937-0.0792 0.301-0.162 0.699-0.183 0.884-0.0213 0.184-0.15 0.649-0.286 1.03l-0.248 0.697 0.129 0.265c0.152 0.312 0.164 0.634 0.0374 0.994-0.0503 0.142-0.0916 0.345-0.0916 0.449-3e-4 0.246-0.19 0.556-0.407 0.666-0.299 0.151-0.979 0.177-1.34 0.051zm33.3-0.832c-0.187-0.157-0.188-0.157-0.518-0.0615-0.546 0.159-0.885 0.146-1.33-0.0518-0.764-0.343-0.773-0.348-0.946-0.68-0.105-0.2-0.225-0.339-0.32-0.373-0.127-0.0448-0.194-0.17-0.4-0.754-0.225-0.636-0.267-0.71-0.455-0.804-0.345-0.172-0.387-0.246-0.379-0.655 0.0109-0.482 0.124-0.743 0.491-1.13 0.19-0.202 0.322-0.406 0.364-0.567 0.036-0.139 0.0954-0.369 0.132-0.512 0.112-0.44 1.07-2.21 1.31-2.42 0.118-0.104 0.251-0.189 0.295-0.189 0.169 0 0.388-0.246 0.455-0.51 0.0739-0.293 0.278-0.575 0.505-0.697 0.0788-0.0423 0.206-0.169 0.284-0.282 0.155-0.227 0.585-0.476 1.32-0.765 0.268-0.105 0.588-0.272 0.714-0.371 0.192-0.153 0.261-0.174 0.461-0.142 0.157 0.0251 0.406-0.0086 0.748-0.102 0.651-0.177 1.67-0.194 2.23-0.0371 0.202 0.0571 0.47 0.119 0.6 0.138 0.257 0.0375 0.714 0.409 0.868 0.706 0.129 0.249 0.105 0.649-0.061 1.01-0.172 0.369-0.758 0.979-1.17 1.22-0.161 0.0937-0.556 0.367-0.876 0.609-0.539 0.406-0.602 0.436-0.807 0.404-0.265-0.0428-0.383 0.0434-0.619 0.446-0.126 0.215-0.188 0.265-0.331 0.265-0.27 0-0.348 0.0499-0.579 0.371-0.118 0.164-0.255 0.299-0.305 0.299-0.0495 0-0.228 0.123-0.398 0.274-0.436 0.388-0.588 0.476-0.809 0.47-0.246-7e-3 -0.335 0.0699-0.385 0.326-0.0316 0.169-0.0967 0.238-0.366 0.39-0.18 0.102-0.369 0.185-0.419 0.185-0.0495 0-0.134 0.0653-0.186 0.145-0.0556 0.0849-0.244 0.2-0.455 0.276-0.385 0.14-0.383 0.137-0.491 0.708-0.101 0.533-0.0664 0.701 0.178 0.864 0.168 0.113 0.289 0.139 0.64 0.138 0.634-0.0015 1.48-0.149 1.86-0.324 0.19-0.087 0.52-0.172 0.762-0.196 0.381-0.0385 0.453-0.068 0.68-0.274 0.263-0.242 0.684-0.484 0.838-0.484 0.0492 0 0.251-0.165 0.449-0.366 0.305-0.31 0.392-0.366 0.575-0.366 0.182 0 0.251-0.043 0.438-0.27 0.162-0.198 0.314-0.305 0.571-0.4 0.192-0.0716 0.432-0.208 0.533-0.301 0.101-0.0942 0.291-0.206 0.425-0.249 0.133-0.0438 0.379-0.206 0.548-0.362 0.701-0.649 0.986-0.798 1.05-0.55 0.0539 0.206 0.123 0.135 0.123-0.127 0-0.297 0.033-0.333 0.655-0.725 0.371-0.234 0.512-0.364 0.607-0.556 0.155-0.314 0.636-0.613 0.809-0.505 0.0918 0.0577 0.108 0.165 0.11 0.731 2e-3 0.644-4e-3 0.674-0.198 1-0.11 0.185-0.202 0.377-0.202 0.427-2e-3 0.151-0.232 0.607-0.305 0.607-0.0379 0-0.183 0.0925-0.324 0.206-0.14 0.113-0.337 0.248-0.436 0.299-0.101 0.051-0.278 0.211-0.394 0.356-0.407 0.506-0.992 1.09-1.09 1.09-0.0562 0-0.133-0.031-0.171-0.0689-0.112-0.112-0.251-0.0137-0.358 0.248-0.135 0.337-0.965 0.901-1.37 0.929-0.257 0.0183-0.278 0.0345-0.409 0.308-0.162 0.339-0.301 0.442-0.716 0.535-0.168 0.0373-0.537 0.192-0.823 0.345-0.579 0.31-2.32 0.954-2.74 1.02-0.248 0.0369-0.305 0.023-0.468-0.115zm0.131-6.34c0.381-0.19 1.11-0.701 1.72-1.2 0.134-0.11 0.406-0.32 0.604-0.465 0.198-0.145 0.527-0.428 0.731-0.628 0.204-0.2 0.455-0.4 0.56-0.444 0.103-0.044 0.223-0.123 0.267-0.175 0.19-0.23-0.278-0.373-0.606-0.186-0.0838 0.048-0.272 0.088-0.419 0.0893-0.152 0.0012-0.348 0.0522-0.457 0.118-0.105 0.064-0.303 0.146-0.44 0.183-0.137 0.0364-0.427 0.2-0.644 0.366-0.217 0.166-0.545 0.396-0.729 0.512-0.472 0.303-0.699 0.586-1.04 1.31-0.425 0.887-0.377 0.941 0.463 0.522zm40.2 6.32c-0.562-0.367-0.832-0.811-0.765-1.26 0.0259-0.173 0-0.358-0.0861-0.607-0.146-0.425-0.165-1.12-0.0396-1.48 0.0461-0.131 0.132-0.484 0.19-0.785 0.0584-0.301 0.156-0.628 0.217-0.729 0.0605-0.101 0.165-0.381 0.232-0.623 0.0674-0.242 0.19-0.531 0.276-0.642 0.0857-0.11 0.183-0.333 0.219-0.497 0.0366-0.163 0.134-0.411 0.217-0.552 0.173-0.295 0.187-0.413 0.0602-0.52-0.0731-0.0607-0.143-0.0442-0.368 0.0882-0.208 0.122-0.324 0.153-0.459 0.124-0.186-0.0408-0.244-0.0093-0.765 0.421-0.19 0.158-0.236 0.17-0.417 0.115-0.249-0.0767-0.379-0.0112-0.43 0.219-0.0584 0.267-0.335 0.486-0.8 0.634-0.402 0.129-0.428 0.15-0.594 0.459-0.442 0.824-1.32 0.918-1.32 0.141 0-0.367 0.128-1.12 0.208-1.22 0.0369-0.047 0.158-0.124 0.268-0.17 0.289-0.121 0.668-0.407 0.908-0.687 0.114-0.133 0.436-0.396 0.718-0.585 0.28-0.189 0.651-0.465 0.824-0.611 0.299-0.255 0.457-0.328 0.678-0.314 0.0998 0.0063 0.398-0.221 0.988-0.752 0.172-0.155 0.409-0.329 0.526-0.39 0.116-0.0609 0.322-0.2 0.453-0.314 0.299-0.255 0.613-0.347 0.943-0.272 0.754 0.169 1.59 1.03 1.59 1.64 0 0.299-0.459 2.36-0.621 2.8-0.0674 0.18-0.202 0.419-0.299 0.529-0.0971 0.111-0.177 0.244-0.177 0.295 0 0.0516-0.071 0.178-0.158 0.282-0.141 0.167-0.153 0.221-0.116 0.491 0.0351 0.255 0.0213 0.329-0.0857 0.465-0.106 0.135-0.127 0.248-0.127 0.668 0 0.278-0.0274 0.524-0.0609 0.545-0.156 0.0964-0.0257 0.152 0.354 0.152 0.387 0 0.428-0.0134 0.594-0.19 0.0984-0.105 0.495-0.345 0.88-0.535 0.655-0.322 1.64-1.03 3.52-2.53 0.425-0.339 0.674-0.356 0.811-0.0554 0.0918 0.202-0.0152 0.613-0.362 1.39-0.303 0.68-0.691 1.15-1.34 1.63-0.278 0.204-0.705 0.552-0.944 0.775s-0.678 0.579-0.971 0.79-0.533 0.409-0.533 0.44c0 0.0308-0.213 0.166-0.472 0.301-0.259 0.134-0.621 0.328-0.8 0.427-0.179 0.099-0.4 0.183-0.487 0.183-0.148 3.81e-4 -0.248 0.0501-0.625 0.314-0.0918 0.0644-0.333 0.116-0.663 0.141-0.501 0.0386-0.527 0.0343-0.792-0.139zm46.3 0.0101-0.163-0.163-0.385 0.108c-0.558 0.157-0.889 0.146-1.25-0.0396-0.165-0.0859-0.385-0.175-0.489-0.198-0.225-0.0487-0.387-0.211-0.566-0.567-0.0714-0.142-0.166-0.259-0.211-0.259-0.145 0-0.263-0.204-0.48-0.823-0.181-0.516-0.244-0.63-0.419-0.743-0.427-0.274-0.44-0.299-0.402-0.754 0.0404-0.482 0.206-0.845 0.468-1.03 0.232-0.165 0.318-0.331 0.484-0.943 0.0813-0.299 0.331-0.866 0.647-1.47 0.527-1.01 0.72-1.25 1.09-1.34 0.19-0.0478 0.31-0.211 0.373-0.514 0.033-0.157 0.184-0.352 0.575-0.741 0.579-0.575 0.626-0.606 1.43-0.931 0.301-0.121 0.663-0.303 0.804-0.404 0.217-0.155 0.291-0.177 0.493-0.145 0.16 0.0257 0.385-0.0045 0.689-0.0925 0.632-0.183 1.65-0.236 1.96-0.103 0.13 0.0548 0.39 0.117 0.579 0.138 0.586 0.0661 0.996 0.362 1.21 0.872 0.244 0.581-0.367 1.57-1.33 2.15-0.185 0.111-0.43 0.276-0.548 0.367-0.754 0.586-0.863 0.647-1.07 0.613-0.238-0.0388-0.36 0.0472-0.642 0.455-0.149 0.215-0.211 0.259-0.377 0.259-0.206 0-0.434 0.186-0.583 0.472-0.0389 0.0754-0.161 0.175-0.27 0.221-0.11 0.0461-0.345 0.213-0.522 0.369-0.364 0.324-0.539 0.407-0.737 0.356-0.16-0.0419-0.303 0.112-0.303 0.326 0 0.0986-0.0924 0.198-0.326 0.354-0.179 0.119-0.366 0.217-0.415 0.217-0.0489 0-0.165 0.0792-0.257 0.176-0.0929 0.0969-0.255 0.194-0.358 0.213-0.375 0.0752-0.446 0.169-0.56 0.756-0.123 0.63-0.087 0.762 0.244 0.901 0.417 0.174 1.87 0.0335 2.46-0.238 0.189-0.0863 0.522-0.172 0.762-0.196 0.398-0.0408 0.447-0.0624 0.745-0.333 0.175-0.159 0.444-0.333 0.598-0.385 0.182-0.0621 0.4-0.213 0.619-0.432 0.28-0.28 0.373-0.337 0.548-0.337 0.154 0 0.248-0.0436 0.345-0.16 0.276-0.335 0.436-0.455 0.685-0.518 0.141-0.0354 0.354-0.157 0.474-0.268 0.119-0.113 0.322-0.232 0.451-0.268 0.129-0.0348 0.316-0.149 0.415-0.253 0.272-0.289 0.946-0.786 1.07-0.786 0.0581 0 0.126 0.0617 0.152 0.137 0.043 0.128 0.0478 0.125 0.0695-0.0457 0.0518-0.406 0.0802-0.44 0.632-0.79 0.451-0.286 0.569-0.394 0.647-0.585 0.0678-0.17 0.171-0.278 0.369-0.39 0.339-0.189 0.415-0.192 0.531-0.0172 0.068 0.104 0.0765 0.196 0.0354 0.379-0.0299 0.133-0.0398 0.407-0.0221 0.609 0.0289 0.328 0.0153 0.39-0.124 0.575-0.0857 0.114-0.215 0.383-0.286 0.598-0.107 0.322-0.171 0.415-0.362 0.537-0.128 0.0807-0.251 0.176-0.272 0.211-0.0219 0.0354-0.145 0.118-0.274 0.184-0.137 0.0699-0.495 0.415-0.859 0.826-0.651 0.737-0.628 0.724-1.01 0.604-0.118-0.0368-0.152-0.0059-0.253 0.232-0.121 0.282-0.145 0.305-0.767 0.716-0.259 0.171-0.43 0.242-0.59 0.242-0.169 1.22e-4 -0.255 0.0394-0.35 0.161-0.0695 0.0884-0.126 0.194-0.126 0.236 0 0.159-0.316 0.39-0.59 0.432-0.151 0.0227-0.562 0.189-0.914 0.369-0.703 0.362-2.32 0.963-2.76 1.02-0.242 0.0328-0.293 0.0179-0.438-0.126zm0.0716-6.32c0.487-0.246 1.27-0.785 1.89-1.31 0.151-0.127 0.467-0.373 0.701-0.546 0.234-0.173 0.503-0.411 0.598-0.531 0.0939-0.119 0.308-0.286 0.476-0.371 0.246-0.124 0.301-0.181 0.286-0.289-0.0151-0.106-0.0657-0.138-0.246-0.153-0.124-0.0103-0.289 0.0158-0.366 0.0579-0.0767 0.0421-0.276 0.095-0.444 0.118-0.404 0.0543-1.26 0.425-1.57 0.684-0.14 0.114-0.449 0.333-0.689 0.487-0.493 0.316-0.703 0.581-1.06 1.35-0.236 0.505-0.274 0.646-0.196 0.722 0.0617 0.0617 0.0743 0.0571 0.63-0.223zm-41.5-9.43c-0.352-0.255-0.684-0.666-0.735-0.916-0.0253-0.12-0.0463-0.497-0.0466-0.838-7.2e-4 -0.805 0.0611-0.901 0.735-1.13 0.727-0.244 0.844-0.232 1.19 0.129 0.288 0.299 0.51 0.665 0.606 0.994 0.0428 0.149-4e-3 0.503-0.157 1.18-0.0472 0.209-0.337 0.514-0.606 0.636-0.371 0.168-0.699 0.148-0.986-0.0602z" stroke-width=".0609"/>
 </g>
</svg>
